<mxfile host="app.diagrams.net" modified="2023-05-31T00:03:34.162Z" agent="Mozilla/5.0 (Windows NT 10.0; Win64; x64) AppleWebKit/537.36 (KHTML, like Gecko) Chrome/113.0.0.0 Safari/537.36 Edg/113.0.1774.57" etag="_TLcvgAeFBbgUpdSQFTK" version="21.3.6" type="gitlab">
  <diagram name="Page-1" id="SmTJ9jXENOAO_js2h8ZC">
    <mxGraphModel dx="1662" dy="780" grid="1" gridSize="10" guides="1" tooltips="1" connect="1" arrows="1" fold="1" page="1" pageScale="1" pageWidth="827" pageHeight="1169" math="0" shadow="0">
      <root>
        <mxCell id="0" />
        <mxCell id="1" parent="0" />
        <mxCell id="4MrRNxrMZ7cUZOcWSPhv-1" value="" style="rounded=0;whiteSpace=wrap;html=1;" vertex="1" parent="1">
          <mxGeometry x="90" y="130" width="710" height="560" as="geometry" />
        </mxCell>
        <mxCell id="4MrRNxrMZ7cUZOcWSPhv-2" value="Chef d&#39;atelier" style="shape=umlActor;verticalLabelPosition=bottom;verticalAlign=top;html=1;outlineConnect=0;" vertex="1" parent="1">
          <mxGeometry x="30" y="280" width="30" height="60" as="geometry" />
        </mxCell>
        <mxCell id="4MrRNxrMZ7cUZOcWSPhv-3" value="administrateur" style="shape=umlActor;verticalLabelPosition=bottom;verticalAlign=top;html=1;outlineConnect=0;" vertex="1" parent="1">
          <mxGeometry x="30" y="530" width="30" height="60" as="geometry" />
        </mxCell>
        <mxCell id="4MrRNxrMZ7cUZOcWSPhv-4" value="Gérer planification of" style="ellipse;whiteSpace=wrap;html=1;" vertex="1" parent="1">
          <mxGeometry x="150" y="220" width="200" height="80" as="geometry" />
        </mxCell>
        <mxCell id="4MrRNxrMZ7cUZOcWSPhv-5" value="" style="endArrow=none;html=1;rounded=0;entryX=0;entryY=0.5;entryDx=0;entryDy=0;" edge="1" parent="1" target="4MrRNxrMZ7cUZOcWSPhv-4">
          <mxGeometry width="50" height="50" relative="1" as="geometry">
            <mxPoint x="70" y="290" as="sourcePoint" />
            <mxPoint x="530" y="560" as="targetPoint" />
          </mxGeometry>
        </mxCell>
        <mxCell id="4MrRNxrMZ7cUZOcWSPhv-6" value="S&#39;authentifier" style="ellipse;whiteSpace=wrap;html=1;" vertex="1" parent="1">
          <mxGeometry x="580" y="186.14" width="200" height="80" as="geometry" />
        </mxCell>
        <mxCell id="4MrRNxrMZ7cUZOcWSPhv-7" value="Affiche liste planification" style="ellipse;whiteSpace=wrap;html=1;" vertex="1" parent="1">
          <mxGeometry x="115" y="380" width="220" height="80" as="geometry" />
        </mxCell>
        <mxCell id="4MrRNxrMZ7cUZOcWSPhv-8" value="" style="triangle;whiteSpace=wrap;html=1;rotation=-90;" vertex="1" parent="1">
          <mxGeometry x="30.680000000000007" y="379.31" width="28.64" height="27.71" as="geometry" />
        </mxCell>
        <mxCell id="4MrRNxrMZ7cUZOcWSPhv-9" value="" style="endArrow=none;html=1;rounded=0;exitX=0.5;exitY=0;exitDx=0;exitDy=0;exitPerimeter=0;entryX=0;entryY=0.5;entryDx=0;entryDy=0;" edge="1" parent="1" source="4MrRNxrMZ7cUZOcWSPhv-3" target="4MrRNxrMZ7cUZOcWSPhv-8">
          <mxGeometry width="50" height="50" relative="1" as="geometry">
            <mxPoint x="430" y="440" as="sourcePoint" />
            <mxPoint x="480" y="390" as="targetPoint" />
          </mxGeometry>
        </mxCell>
        <mxCell id="4MrRNxrMZ7cUZOcWSPhv-10" value="" style="triangle;whiteSpace=wrap;html=1;rotation=-90;" vertex="1" parent="1">
          <mxGeometry x="30.680000000000007" y="379.31" width="28.64" height="27.71" as="geometry" />
        </mxCell>
        <mxCell id="4MrRNxrMZ7cUZOcWSPhv-11" value="" style="triangle;whiteSpace=wrap;html=1;rotation=-175;direction=south;" vertex="1" parent="1">
          <mxGeometry x="220" y="300" width="27.02" height="19.32" as="geometry" />
        </mxCell>
        <mxCell id="4MrRNxrMZ7cUZOcWSPhv-12" value="" style="endArrow=none;html=1;rounded=0;exitX=0.5;exitY=0;exitDx=0;exitDy=0;" edge="1" parent="1" source="4MrRNxrMZ7cUZOcWSPhv-7">
          <mxGeometry width="50" height="50" relative="1" as="geometry">
            <mxPoint x="480" y="500" as="sourcePoint" />
            <mxPoint x="234" y="320" as="targetPoint" />
          </mxGeometry>
        </mxCell>
        <mxCell id="4MrRNxrMZ7cUZOcWSPhv-13" value="Affectation machine" style="ellipse;whiteSpace=wrap;html=1;" vertex="1" parent="1">
          <mxGeometry x="420" y="570" width="200" height="80" as="geometry" />
        </mxCell>
        <mxCell id="4MrRNxrMZ7cUZOcWSPhv-14" value="" style="endArrow=none;dashed=1;html=1;dashPattern=1 3;strokeWidth=2;rounded=0;exitX=1;exitY=0.5;exitDx=0;exitDy=0;entryX=0;entryY=0.5;entryDx=0;entryDy=0;" edge="1" parent="1" source="4MrRNxrMZ7cUZOcWSPhv-4" target="4MrRNxrMZ7cUZOcWSPhv-15">
          <mxGeometry width="50" height="50" relative="1" as="geometry">
            <mxPoint x="480" y="500" as="sourcePoint" />
            <mxPoint x="530" y="450" as="targetPoint" />
          </mxGeometry>
        </mxCell>
        <mxCell id="4MrRNxrMZ7cUZOcWSPhv-15" value="" style="triangle;whiteSpace=wrap;html=1;rotation=0;" vertex="1" parent="1">
          <mxGeometry x="551.36" y="220.00000000000006" width="28.64" height="27.71" as="geometry" />
        </mxCell>
        <mxCell id="4MrRNxrMZ7cUZOcWSPhv-16" value="&amp;lt;&amp;lt;include&amp;gt;&amp;gt;" style="text;html=1;strokeColor=none;fillColor=none;align=center;verticalAlign=middle;whiteSpace=wrap;rounded=0;" vertex="1" parent="1">
          <mxGeometry x="440" y="216.14" width="40" height="20" as="geometry" />
        </mxCell>
        <mxCell id="4MrRNxrMZ7cUZOcWSPhv-17" value="" style="endArrow=none;html=1;rounded=0;entryX=0;entryY=0.5;entryDx=0;entryDy=0;exitX=0.5;exitY=0;exitDx=0;exitDy=0;" edge="1" parent="1" source="4MrRNxrMZ7cUZOcWSPhv-13" target="4MrRNxrMZ7cUZOcWSPhv-19">
          <mxGeometry width="50" height="50" relative="1" as="geometry">
            <mxPoint x="460" y="696" as="sourcePoint" />
            <mxPoint x="403.16934849373797" y="500.68565150626205" as="targetPoint" />
          </mxGeometry>
        </mxCell>
        <mxCell id="4MrRNxrMZ7cUZOcWSPhv-18" value="Gérer conducteur par machine" style="rounded=0;whiteSpace=wrap;html=1;" vertex="1" parent="1">
          <mxGeometry x="90" y="130" width="270" height="40" as="geometry" />
        </mxCell>
        <mxCell id="4MrRNxrMZ7cUZOcWSPhv-19" value="" style="triangle;whiteSpace=wrap;html=1;rotation=-180;direction=south;" vertex="1" parent="1">
          <mxGeometry x="506.49" y="460" width="27.02" height="19.32" as="geometry" />
        </mxCell>
        <mxCell id="4MrRNxrMZ7cUZOcWSPhv-20" value="Modifier planificatiuon" style="ellipse;whiteSpace=wrap;html=1;" vertex="1" parent="1">
          <mxGeometry x="410" y="380" width="220" height="80" as="geometry" />
        </mxCell>
        <mxCell id="4MrRNxrMZ7cUZOcWSPhv-25" value="" style="triangle;whiteSpace=wrap;html=1;rotation=120;direction=south;" vertex="1" parent="1">
          <mxGeometry x="326.49" y="280" width="27.02" height="19.32" as="geometry" />
        </mxCell>
        <mxCell id="4MrRNxrMZ7cUZOcWSPhv-26" value="" style="endArrow=none;html=1;rounded=0;exitX=0.5;exitY=0;exitDx=0;exitDy=0;entryX=0;entryY=0.5;entryDx=0;entryDy=0;" edge="1" parent="1" source="4MrRNxrMZ7cUZOcWSPhv-20" target="4MrRNxrMZ7cUZOcWSPhv-25">
          <mxGeometry width="50" height="50" relative="1" as="geometry">
            <mxPoint x="210" y="400" as="sourcePoint" />
            <mxPoint x="244" y="330" as="targetPoint" />
          </mxGeometry>
        </mxCell>
      </root>
    </mxGraphModel>
  </diagram>
</mxfile>
